<svg width="45" height="41" viewBox="0 0 45 41" fill="none" xmlns="http://www.w3.org/2000/svg">
<path d="M11.4255 1.16476H7.91003V23.488H11.4255V1.16476Z" fill="#196DA6"/>
<path d="M37.0885 1.16476H33.573V23.488H37.0885V1.16476Z" fill="#196DA6"/>
<path d="M33.5729 23.4882H26.1905H22.4993H18.8082H15.1168H11.4256H7.91013H4.39467H0.879395V27.0035H7.91013H11.4256H33.5729H37.0884H44.1195V23.4882H40.604H37.0884H33.5729Z" fill="#FFDAAE"/>
<path d="M33.573 27.0035V31.8334C34.5894 31.3291 35.6376 30.8904 37.0885 31.2697V27.0034H33.573V27.0035Z" fill="#196DA6"/>
<path d="M11.4256 32.0975V27.0037H7.91016V32.6611C9.36115 33.0405 10.4097 32.6017 11.4256 32.0975Z" fill="#196DA6"/>
<path d="M0.879395 35.4807V39.835H44.1195V35.4807V31.9653C44.1195 31.9653 41.8519 33.777 38.7144 31.9653C38.1167 31.6203 37.5797 31.3982 37.0884 31.2697C35.6376 30.8904 34.5893 31.3292 33.5729 31.8334C32.0369 32.5955 30.574 33.5067 27.9044 31.9653C24.7668 30.1541 22.4994 31.9653 22.4994 31.9653C22.4994 31.9653 20.2318 33.777 17.0944 31.9653C14.4248 30.4241 12.9619 31.3352 11.4257 32.0973C10.4097 32.6016 9.36121 33.0404 7.91022 32.661C7.41926 32.5326 6.88225 32.3105 6.28433 31.9653C3.14671 30.1541 0.879482 31.9653 0.879482 31.9653L0.879395 35.4807Z" fill="#96C8EB"/>
<path d="M44.8093 31.4141C44.5206 31.0528 44.0082 30.9783 43.6326 31.2338C43.6251 31.2388 43.618 31.2442 43.6108 31.2494C43.5997 31.2576 43.5882 31.2649 43.5772 31.2736C43.5019 31.3315 41.702 32.6755 39.154 31.2041C38.7367 30.9632 38.3424 30.777 37.9674 30.6342V27.8822H44.1196C44.6049 27.8822 44.9985 27.4886 44.9985 27.0033V23.4881L44.9996 11.4746C44.9996 11.472 44.9993 11.4693 44.9991 11.4667C44.9989 11.4468 44.9977 11.4271 44.9962 11.4073C44.9953 11.3974 44.9949 11.3872 44.994 11.3773C44.992 11.3607 44.9891 11.3442 44.9864 11.3277C44.9842 11.315 44.9825 11.3022 44.9797 11.2896C44.977 11.2771 44.9734 11.265 44.9703 11.2526C44.9662 11.2367 44.9623 11.2209 44.9573 11.2053C44.9544 11.1963 44.9508 11.1877 44.9476 11.1787C44.9412 11.1608 44.9348 11.1427 44.9274 11.1254C44.9239 11.1175 44.9198 11.1099 44.916 11.1021C44.9078 11.0846 44.8997 11.067 44.8903 11.0501C44.8847 11.04 44.8784 11.0304 44.8724 11.0206C44.864 11.0068 44.8559 10.9927 44.8469 10.9793C44.8376 10.9657 44.8273 10.9528 44.8173 10.9398C44.8105 10.9308 44.8041 10.9216 44.7969 10.913C44.7844 10.8979 44.7708 10.8836 44.7573 10.8694C44.7517 10.8634 44.7463 10.8569 44.7403 10.851C44.7268 10.8375 44.712 10.8248 44.6974 10.8121C44.6906 10.8061 44.6841 10.7997 44.677 10.794C44.6642 10.7834 44.6504 10.7738 44.6371 10.764C44.6269 10.7567 44.6171 10.7492 44.6068 10.7422C44.5958 10.735 44.5843 10.7285 44.573 10.7217C44.5589 10.7132 44.5449 10.7048 44.5304 10.6971C44.5214 10.6922 44.5117 10.688 44.5025 10.6836C44.485 10.6752 44.4673 10.6669 44.4493 10.6596C44.4468 10.6586 44.4443 10.6573 44.4418 10.6563C43.2492 10.1888 42.1855 9.5194 41.2808 8.6971C41.2339 8.64085 41.1799 8.59119 41.1205 8.54821C39.1392 6.66761 37.9679 4.03141 37.9679 1.16477C37.9679 0.679345 37.5744 0.285858 37.089 0.285858H33.5734C33.0882 0.285858 32.6945 0.679345 32.6945 1.16477C32.6945 6.78617 28.1211 11.3596 22.4998 11.3596C16.8783 11.3596 12.3049 6.78617 12.3049 1.16477C12.3049 0.679345 11.9114 0.285858 11.426 0.285858H7.91066C7.42541 0.285858 7.03175 0.679345 7.03175 1.16477C7.03175 4.0315 5.86043 6.6677 3.87902 8.54847C3.81995 8.59136 3.76608 8.64085 3.71941 8.69674C2.81457 9.51923 1.75092 10.1888 0.558063 10.6564C0.555514 10.6574 0.553229 10.6586 0.55068 10.6597C0.532486 10.6671 0.51482 10.6753 0.497154 10.6839C0.488014 10.6883 0.478609 10.6925 0.469469 10.6971C0.454879 10.7049 0.440641 10.7135 0.426578 10.722C0.41524 10.7288 0.403902 10.7351 0.393092 10.7423C0.382633 10.7493 0.372701 10.757 0.362506 10.7644C0.349146 10.774 0.335523 10.7836 0.322867 10.794C0.31566 10.7999 0.309156 10.8063 0.302125 10.8124C0.287535 10.8251 0.272945 10.8377 0.25941 10.8512C0.253609 10.857 0.248248 10.8633 0.242623 10.8693C0.229087 10.8836 0.215289 10.898 0.202808 10.9131C0.195953 10.9215 0.189624 10.9305 0.182857 10.9392C0.172749 10.9525 0.16229 10.9656 0.152798 10.9794C0.143921 10.9924 0.136187 11.0062 0.127925 11.0195C0.121773 11.0298 0.115093 11.0397 0.109204 11.0503C0.100239 11.0668 0.0924172 11.0839 0.0843312 11.1008C0.0803761 11.1092 0.0758937 11.1173 0.0722902 11.1256C0.0649074 11.1426 0.058755 11.1601 0.0525148 11.1775C0.049087 11.1869 0.0453077 11.1961 0.0422315 11.2055C0.0373975 11.2207 0.0336182 11.2363 0.0295753 11.2516C0.0263233 11.2644 0.022544 11.2769 0.0198194 11.2898C0.0172705 11.302 0.0155127 11.3144 0.0134912 11.3269C0.0105908 11.3437 0.00769045 11.3605 0.00558107 11.3776C0.00452638 11.3872 0.00417481 11.397 0.00355958 11.4067C0.00197754 11.4266 0.000659181 11.4467 0.000483399 11.4669C0.000483399 11.4694 0.000131836 11.4721 0.000131836 11.4746L0.00118653 23.4881V27.0033C0.00118653 27.4886 0.394674 27.8822 0.880094 27.8822H7.03201V31.3721C6.93173 31.3199 6.8296 31.2647 6.72439 31.204C3.10883 29.117 0.443189 31.1892 0.33148 31.2785C0.329898 31.2798 0.328756 31.2811 0.327173 31.2823C0.312935 31.2939 0.2994 31.3064 0.285953 31.3189C0.277691 31.3264 0.26899 31.3336 0.26108 31.3415C0.2515 31.3509 0.242886 31.3611 0.233746 31.371C0.0693019 31.5494 -0.0108545 31.7833 0.00118653 32.0157V35.4419C-0.000395509 35.4716 -0.000395509 35.5013 0.00118653 35.531V39.8349C0.00118653 40.3202 0.394674 40.7138 0.880094 40.7138H44.1202C44.6054 40.7138 44.9991 40.3202 44.9991 39.8349V32.0039C45.0086 31.7979 44.9478 31.5876 44.8093 31.4141ZM36.2096 30.2557C35.559 30.2294 34.9792 30.3375 34.4518 30.5083V27.8823H36.2096V30.2557ZM12.3046 27.8823H32.6941V31.2907C31.4172 31.9267 30.3361 32.3545 28.3439 31.2042C24.7281 29.1169 22.0625 31.1894 21.9569 31.2737C21.8816 31.3316 20.0818 32.6755 17.5337 31.2042C15.2363 29.8778 13.6109 30.1614 12.3045 30.7037L12.3046 27.8823ZM43.2406 22.6093H41.4831L41.484 11.0788C42.0385 11.4519 42.6259 11.7783 43.2415 12.0558L43.2406 22.6093ZM38.2878 7.9001C38.7154 8.52694 39.1973 9.10667 39.7264 9.63454L39.7254 22.6093H37.9673V7.40123C38.0703 7.56946 38.176 7.73627 38.2878 7.9001ZM36.2096 22.6093H34.4518V2.04385H36.2096V22.6093ZM32.6941 7.39789V22.6093H27.0695L27.0701 12.2083C27.7483 11.9266 28.3948 11.5842 29.0036 11.1881V14.6907C29.0036 15.1761 29.3972 15.5696 29.8825 15.5696C30.3679 15.5696 30.7614 15.1761 30.7614 14.6907V9.79432C31.5034 9.08329 32.1541 8.27812 32.6941 7.39789ZM23.3783 22.6093L23.3788 13.085C24.0396 13.0367 24.6854 12.934 25.3123 12.7823L25.3118 22.6093H23.3783ZM19.6872 22.6093L19.6876 12.7825C20.3145 12.9343 20.9602 13.0369 21.6211 13.085L21.6206 22.6092L19.6872 22.6093ZM17.93 12.2089L17.9295 22.6093H15.9958V18.2148C15.9958 17.7295 15.6023 17.3359 15.1169 17.3359C14.6317 17.3359 14.238 17.7295 14.238 18.2148V22.6093H12.3045V7.39789C13.6185 9.53874 15.5871 11.2359 17.93 12.2089ZM10.5469 22.6093H8.78912V2.04385H10.5469V22.6093ZM6.71095 7.9001C6.82266 7.73636 6.92848 7.56946 7.0314 7.40123V22.6093H5.27367L5.2727 9.63445C5.80163 9.10649 6.28353 8.52685 6.71095 7.9001ZM1.75821 22.6093L1.75733 12.0559C2.37292 11.7782 2.96056 11.4518 3.51506 11.0789L3.51594 22.6094L1.75821 22.6093ZM1.75839 24.3671H7.91022H11.4257H26.1904H33.5729H37.0884H40.604H43.2406V26.1246H37.0884H33.5729H11.4257H7.91022H1.75839V24.3671ZM8.78912 27.8823H10.5469V31.5416C9.98655 31.7898 9.43407 31.9563 8.78912 31.9169V27.8823ZM1.75839 38.9561V35.9665C2.40025 35.633 3.9053 35.1222 5.84496 36.2418C7.06251 36.9448 8.09092 37.1957 8.98363 37.1956C10.2374 37.1955 11.223 36.7003 12.085 36.267C12.9207 35.8471 13.6423 35.4851 14.5378 35.5257C15.0207 35.5495 15.4338 35.1732 15.4563 34.6883C15.4787 34.2034 15.1037 33.7922 14.619 33.7698C13.2651 33.7069 12.2184 34.2328 11.2958 34.6964C9.91808 35.3889 8.82991 35.9357 6.72369 34.7195C4.65922 33.5278 2.90475 33.6925 1.7583 34.0694V32.4512C2.40017 32.1176 3.90521 31.6067 5.84487 32.7264C6.48858 33.098 7.07938 33.3431 7.62527 33.4917C7.67027 33.5072 7.71694 33.5189 7.76484 33.5268C9.62831 33.9843 10.961 33.3155 12.0843 32.7504C13.4613 32.0578 14.5493 31.5106 16.655 32.7264C20.2706 34.8143 22.9364 32.7412 23.0418 32.6569C23.1169 32.599 24.9167 31.2554 27.4651 32.7264C28.6822 33.429 29.7104 33.68 30.6026 33.68C31.8569 33.68 32.8423 33.1842 33.7045 32.7505C35.0815 32.0579 36.1695 31.5107 38.2752 32.7265C39.4776 33.4209 40.5747 33.655 41.5079 33.655C42.1773 33.6549 42.7618 33.5342 43.2407 33.3767V38.9562L1.75839 38.9561Z" fill="#000001"/>
<path d="M17.5275 34.7159C17.5261 34.7151 17.525 34.7144 17.5245 34.7141C17.1054 34.4708 16.5703 34.6129 16.3256 35.0312C16.081 35.4495 16.2226 35.9876 16.6403 36.2333C16.6516 36.2399 16.6635 36.2466 16.6748 36.2529C16.8082 36.3254 16.952 36.3597 17.0939 36.3597C17.4056 36.3597 17.7075 36.1935 17.8669 35.9003C18.0961 35.4784 17.944 34.9514 17.5275 34.7159Z" fill="#000001"/>
</svg>
