<svg width="43" height="43" viewBox="0 0 43 43" fill="none" xmlns="http://www.w3.org/2000/svg">
<path d="M21.5001 35.441H28.2189L26.0353 6.19826L21.5001 0.839417L16.965 6.19826L14.7814 35.441H21.5001Z" fill="#FFDAAE"/>
<path d="M28.2189 35.441H21.5001H14.7814H11.4218V38.8007H31.5781V35.441H28.2189Z" fill="#3DA8F1"/>
<path d="M30.4585 38.8007H21.5001H12.5417H8.06256V42.1599H34.9374V38.8007H30.4585Z" fill="#196DA6"/>
<path d="M3.04325 41.3201H3.02343C2.55967 41.3201 2.18359 41.6961 2.18359 42.1599C2.18359 42.6237 2.55959 42.9997 3.02343 42.9997H3.04325C3.5071 42.9997 3.88309 42.6237 3.88309 42.1599C3.88309 41.6961 3.5071 41.3201 3.04325 41.3201Z" fill="#000001"/>
<path d="M39.9766 41.3201H39.9566C39.4928 41.3201 39.1168 41.6961 39.1168 42.1599C39.1168 42.6237 39.4928 42.9997 39.9566 42.9997H39.9766C40.4404 42.9997 40.8164 42.6237 40.8164 42.1599C40.8164 41.6961 40.4404 41.3201 39.9766 41.3201Z" fill="#000001"/>
<path d="M37.5438 41.3201H35.7772V38.8007C35.7772 38.337 35.4012 37.9609 34.9374 37.9609H32.418V35.4411C32.418 34.9774 32.042 34.6013 31.5781 34.6013H28.9984L26.8728 6.13578C26.8596 5.95908 26.7909 5.79111 26.6763 5.65581L22.1411 0.296883C22.136 0.29092 22.1304 0.285629 22.1252 0.279834C22.1148 0.268245 22.1044 0.256907 22.0932 0.245821C22.0826 0.235155 22.0716 0.225077 22.0604 0.215083C22.0543 0.209624 22.0489 0.203661 22.0425 0.19837C22.0391 0.195431 22.0354 0.193079 22.0318 0.190224C22.0189 0.179558 22.0056 0.169647 21.9921 0.159905C21.9828 0.153103 21.9736 0.1463 21.9641 0.140001C21.9505 0.131015 21.9369 0.122868 21.9229 0.114722C21.9125 0.108675 21.9022 0.10246 21.8916 0.0968334C21.8786 0.0900307 21.8653 0.0838999 21.8519 0.0776851C21.8399 0.0721422 21.8281 0.0665152 21.8158 0.0616442C21.8035 0.0566051 21.7909 0.052322 21.7784 0.0478708C21.7651 0.0431677 21.7518 0.0384646 21.7383 0.0345174C21.7261 0.0309061 21.7138 0.0280506 21.7015 0.0250272C21.6876 0.0215839 21.6737 0.0180565 21.6596 0.0153691C21.6469 0.0129335 21.6342 0.0111699 21.6214 0.0094062C21.6078 0.00739058 21.5942 0.00529099 21.5804 0.00403123C21.5666 0.00268748 21.5527 0.00218358 21.5388 0.00151171C21.5261 0.000755855 21.5136 0 21.501 0C21.4857 0 21.4705 0.000839839 21.4553 0.00167968C21.444 0.00226757 21.4328 0.00268748 21.4214 0.00369529C21.4054 0.005207 21.3893 0.00755855 21.3733 0.00999408C21.3629 0.0115898 21.3524 0.0129335 21.3421 0.0149491C21.326 0.0179726 21.3101 0.0220038 21.2942 0.026035C21.2839 0.0286385 21.2734 0.031074 21.2631 0.0340975C21.2481 0.0384646 21.2335 0.0436716 21.2188 0.0489626C21.2075 0.0529938 21.1961 0.0568571 21.1851 0.0612243C21.1721 0.0665152 21.1593 0.0725621 21.1465 0.0785249C21.1339 0.0843198 21.1213 0.0901987 21.1089 0.0966655C21.0981 0.102376 21.0874 0.108675 21.0768 0.115058C21.063 0.12312 21.0493 0.131183 21.036 0.140169C21.0266 0.1463 21.0177 0.152935 21.0086 0.159485C20.9948 0.16948 20.981 0.179726 20.9678 0.190727C20.9645 0.193415 20.9609 0.195682 20.9576 0.198454C20.9517 0.203409 20.9465 0.20912 20.9407 0.214327C20.9291 0.224741 20.9176 0.235239 20.9065 0.246409C20.8959 0.257075 20.8858 0.268077 20.8758 0.279246C20.8704 0.285293 20.8645 0.290752 20.8592 0.297051L16.3242 5.6559C16.2097 5.79111 16.141 5.95916 16.1277 6.13586L14.0021 34.6014H11.4219C10.9581 34.6014 10.5821 34.9775 10.5821 35.4413V37.9611H8.06255C7.59871 37.9611 7.22271 38.3371 7.22271 38.8009V41.3202H5.45611C4.99235 41.3202 4.61627 41.6963 4.61627 42.1601C4.61627 42.6238 4.99235 42.9999 5.45611 42.9999H8.0623H18.1406H28.2186H34.9373H37.5437C38.0075 42.9999 38.3835 42.6238 38.3835 42.1601C38.3836 41.6962 38.0076 41.3201 37.5438 41.3201ZM17.7823 6.5326L21.5001 2.13941L25.218 6.53269L27.314 34.6012H22.3399V10.6838C22.3399 10.22 21.9638 9.84392 21.5001 9.84392C21.0362 9.84392 20.6602 10.22 20.6602 10.6838V34.6012H15.6862L17.7823 6.5326ZM12.2616 36.2809H30.7382V37.9608H12.2616V36.2809ZM28.2187 41.3201H18.1407H8.90222V39.6406H11.4217H31.578H34.0975V41.3201H28.2187Z" fill="#000001"/>
<path d="M21.5001 9.11081C21.9638 9.11081 22.3399 8.73473 22.3399 8.27097V8.25115C22.3399 7.7874 21.9638 7.41132 21.5001 7.41132C21.0362 7.41132 20.6602 7.7874 20.6602 8.25115V8.27097C20.6602 8.73482 21.0361 9.11081 21.5001 9.11081Z" fill="#000001"/>
</svg>
