<svg width="44" height="44" viewBox="0 0 44 44" fill="none" xmlns="http://www.w3.org/2000/svg">
<g clip-path="url(#clip0_41_103)">
<path d="M23.7188 4.29712V2.57846C23.7188 1.63289 22.9453 0.859711 21.9998 0.859711C21.0543 0.859711 20.2812 1.63289 20.2812 2.57846V4.29712H23.7188Z" fill="#196DA6"/>
<path d="M25.4375 4.29712H23.7188H20.2813H18.5623L11.4298 11.222L4.4276 18.0201L0.859558 21.4844H43.1403L39.5723 18.0201L32.5702 11.222L25.4375 4.29712Z" fill="#3DA8F1"/>
<path d="M43.1403 21.4844H0.859558C0.859558 22.3439 2.18789 24.0626 3.09359 24.0626H9.96867H18.5622H25.4371H34.0307H40.9057C41.8925 24.0626 43.1403 22.4779 43.1403 21.4844Z" fill="#196DA6"/>
<path d="M9.96865 26.6405V24.0626H3.09357V26.6405H3.95311H9.10928H9.96865Z" fill="#A6A521"/>
<path d="M18.5621 24.0626V26.6405H19.4215H24.5779H25.4371V24.0626H18.5621Z" fill="#A6A521"/>
<path d="M34.0308 24.0626V26.6405H34.8904H40.0462H40.9057V24.0626H34.0308Z" fill="#A6A521"/>
<path d="M40.0463 26.6404H34.8904V37.1247H40.0463V26.6404Z" fill="#FFDAAE"/>
<path d="M24.5779 26.6404H19.4217V37.1247H24.5779V26.6404Z" fill="#FFDAAE"/>
<path d="M9.10938 26.6404H3.95312V37.1247H9.10938V26.6404Z" fill="#FFDAAE"/>
<path d="M9.10928 37.1248H3.95311H3.09357V39.7029H9.96865V37.1248H9.10928Z" fill="#A6A521"/>
<path d="M18.5621 37.1248V39.7029H25.4371V37.1248H24.5779H19.4215H18.5621Z" fill="#A6A521"/>
<path d="M34.0308 37.1248V39.7029H40.9057V37.1248H40.0462H34.8904H34.0308Z" fill="#A6A521"/>
<path d="M40.9057 39.7029H34.0308H25.4372H18.5622H9.96875H3.09358H2.57727C1.6335 39.7029 0.859375 40.476 0.859375 41.4216V43.1403H43.1406V41.4216C43.1406 40.476 42.3663 39.7029 41.4208 39.7029H40.9057Z" fill="#196DA6"/>
<path d="M41.7651 38.8672V37.1248C41.7651 36.6501 41.3805 36.2654 40.9057 36.2654L40.9056 27.4998C41.3803 27.4998 41.7651 27.1149 41.7651 26.6404V24.717C42.9545 24.1692 43.9997 22.6318 43.9997 21.4843C43.9997 21.4822 43.9993 21.4782 43.9993 21.4782C43.9991 21.4609 43.9978 21.4435 43.9966 21.4262C43.996 21.415 43.9958 21.4036 43.9947 21.3925C43.993 21.3772 43.9901 21.3621 43.9876 21.347C43.9856 21.3343 43.9841 21.3213 43.9816 21.3087C43.9793 21.2974 43.9758 21.2863 43.9728 21.2751C43.969 21.2592 43.9655 21.2431 43.9606 21.2276C43.9582 21.2203 43.9551 21.2132 43.9526 21.206C43.9461 21.187 43.9398 21.168 43.932 21.1497C43.9137 21.1064 43.8909 21.0647 43.8652 21.0242C43.8609 21.0173 43.857 21.0101 43.8525 21.0034C43.8446 20.9916 43.8356 20.9805 43.827 20.9692C43.8184 20.9579 43.8104 20.9463 43.8015 20.9356C43.7939 20.9266 43.7853 20.918 43.7775 20.9091C43.7663 20.8967 43.7552 20.8842 43.7433 20.8724C43.7418 20.8709 43.7405 20.8693 43.7389 20.8677L40.1815 17.414C40.18 17.4125 40.1787 17.4111 40.1772 17.4098L26.0361 3.68055C25.8758 3.52483 25.6609 3.43778 25.4375 3.43778H24.5781V2.57849C24.5781 1.15691 23.4217 0.000366211 21.9998 0.000366211C20.5783 0.000366211 19.4219 1.15691 19.4219 2.57849V3.43778H18.5623C18.3389 3.43778 18.124 3.52492 17.9638 3.68055L0.26082 20.8678C0.259273 20.8693 0.257984 20.871 0.256438 20.8725C0.244664 20.8841 0.23375 20.8966 0.222492 20.909C0.214414 20.9179 0.205906 20.9265 0.198172 20.9357C0.189578 20.9461 0.18193 20.9573 0.17368 20.9681C0.164742 20.9799 0.155375 20.9914 0.147125 21.0036C0.14343 21.009 0.140594 21.0147 0.13707 21.0202C0.110172 21.0618 0.0865391 21.105 0.0675469 21.1498C0.0641953 21.1579 0.0617031 21.1663 0.0584375 21.1745C0.0517344 21.1922 0.0446875 21.2097 0.0390156 21.2278C0.0346328 21.2421 0.0314531 21.257 0.0275859 21.2716C0.0245781 21.2841 0.0207109 21.2963 0.0180469 21.3089C0.0155547 21.3211 0.0141797 21.3337 0.0122031 21.3462C0.00971094 21.3618 0.00678906 21.3771 0.00515625 21.3927C0.00395312 21.4037 0.00378125 21.415 0.00300781 21.4262C0.00180469 21.4436 0.000515625 21.4609 0.000515625 21.4784C0.000515625 21.4784 0.000171875 21.4824 0.000171875 21.4845C0.000171875 22.457 1.04079 24.1051 2.2342 24.6997V26.6405C2.2342 27.115 2.61912 27.4998 3.09358 27.4998L3.09375 36.2655C2.61929 36.2655 2.2342 36.6502 2.2342 37.1249V38.8671C0.974875 39.0355 0 40.1165 0 41.4216V43.1403C0 43.6149 0.384742 43.9997 0.859375 43.9997H43.1406C43.6151 43.9997 44 43.6149 44 43.1403V41.4216C44 40.1168 43.025 39.0361 41.7651 38.8672ZM26.2965 38.8436V37.1248C26.2965 36.6502 25.9119 36.2656 25.4373 36.2654V27.4998C25.9119 27.4996 26.2965 27.1149 26.2965 26.6404V24.9219H33.1714V26.6404C33.1714 27.1149 33.5562 27.4998 34.0308 27.4998L34.031 36.2654C33.5564 36.2654 33.1714 36.6501 33.1714 37.1248V38.8436H26.2965ZM10.828 38.8436V37.1248C10.828 36.6501 10.4431 36.2654 9.96866 36.2654V27.4998C10.4431 27.4998 10.828 27.1149 10.828 26.6404V24.9219H17.7028V26.6404C17.7028 27.1149 18.0877 27.4998 18.5622 27.4998V36.2654C18.0877 36.2654 17.7028 36.6501 17.7028 37.1248V38.8436H10.828ZM3.95295 37.9842H9.10938V38.8437H3.95295V37.9842ZM3.95295 25.7811V24.922H9.10938V25.7811H3.95295ZM23.7186 27.4998V36.2654H20.2809V27.4998H23.7186ZM24.5778 25.7811H19.4215V24.922H24.5778V25.7811ZM19.4215 37.9842H24.5778V38.8437H19.4215V37.9842ZM40.0464 25.7811H34.8901V24.922H40.0464V25.7811ZM34.8902 37.9842H40.0464V38.8437H34.8902V37.9842ZM39.1868 36.2655H35.7497V27.4998H39.1868V36.2655ZM21.1406 2.57849C21.1406 2.10463 21.526 1.71912 22.0002 1.71912C22.474 1.71912 22.8594 2.10463 22.8594 2.57849V3.43778H21.1406V2.57849ZM18.911 5.15653H20.2812H23.7188H25.0889L37.4532 17.1609H35.1864C34.7119 17.1609 34.327 17.5456 34.327 18.0203C34.327 18.4948 34.7119 18.8796 35.1864 18.8796H39.2236L41.0213 20.625H2.97842L4.77623 18.8795H8.81349C9.28813 18.8795 9.67287 18.4947 9.67287 18.0202C9.67287 17.5455 9.28813 17.1608 8.81349 17.1608H6.54646L18.911 5.15653ZM41.9236 22.3438C41.8669 22.4271 41.8036 22.5114 41.7339 22.5947C41.3492 23.0546 41.0098 23.2032 40.9057 23.2032H34.0308H25.4372H18.5622H9.96875H3.10097C2.99862 23.186 2.65332 22.9896 2.26136 22.5018C2.21839 22.4484 2.17826 22.3956 2.14088 22.3438H41.9236ZM4.8125 27.4998H8.25V36.2654H4.8125V27.4998ZM42.2812 42.2809H1.71875V41.4216C1.71875 40.9478 2.10392 40.5624 2.57727 40.5624H3.09358H9.96866H18.5622H25.4371H34.0307H40.9057H41.4208C41.8951 40.5624 42.2812 40.9478 42.2812 41.4216L42.2812 42.2809Z" fill="#000001"/>
<path d="M11.2824 18.8795H11.3025C11.7772 18.8795 12.1619 18.4947 12.1619 18.0201C12.1619 17.5455 11.7772 17.1608 11.3025 17.1608H11.2824C10.8078 17.1608 10.423 17.5455 10.423 18.0201C10.423 18.4947 10.8078 18.8795 11.2824 18.8795Z" fill="#000001"/>
<path d="M32.6974 18.8795H32.7177C33.1922 18.8795 33.577 18.4947 33.577 18.0201C33.577 17.5455 33.1922 17.1608 32.7177 17.1608H32.6974C32.2229 17.1608 31.838 17.5455 31.838 18.0201C31.838 18.4947 32.2229 18.8795 32.6974 18.8795Z" fill="#000001"/>
</g>
<defs>
<clipPath id="clip0_41_103">
<rect width="44" height="44" fill="white"/>
</clipPath>
</defs>
</svg>
