<svg width="53" height="39" viewBox="0 0 53 39" fill="none" xmlns="http://www.w3.org/2000/svg">
<path d="M3.10526 5.13152H36.2302H38.3006V1.02634H1.03516V5.13152H3.10526Z" fill="#3DA8F1"/>
<path d="M36.2302 23.6054V5.13153H3.10522V23.6054H13.4568C13.4568 20.2186 16.2515 17.4473 19.6677 17.4473C23.0839 17.4473 25.8787 20.2186 25.8787 23.6054H36.2302Z" fill="#FFDAAE"/>
<path d="M36.2303 23.6054H25.8788V34.8946H36.2303V27.7105V23.6054Z" fill="#3DA8F1"/>
<path d="M13.4568 34.8946V23.6054H3.10522V27.7105V34.8946H13.4568Z" fill="#3DA8F1"/>
<path d="M13.4568 34.8946H3.10526H1.03516V37.9737H15.5271V34.8946H13.4568Z" fill="#196DA6"/>
<path d="M23.8085 34.8946V37.9737H38.3004V34.8946H36.2301H25.8786H23.8085Z" fill="#196DA6"/>
<path d="M41.6133 23.6054C41.6133 26.4392 43.9305 28.7369 46.7891 28.7369C49.6355 28.7369 51.9455 26.4589 51.9648 23.6409V23.6054V23.5698C51.9454 20.7518 49.6355 18.4738 46.7891 18.4738C43.9305 18.4738 41.6133 20.7709 41.6133 23.6054Z" fill="#54BA9D"/>
<path d="M48.9661 36.9473H47.8242V29.676C50.7576 29.1858 53 26.651 53 23.6054C53 20.2099 50.2138 17.4475 46.789 17.4475C43.3643 17.4475 40.5781 20.2099 40.5781 23.6054C40.5781 26.6511 42.8203 29.1858 45.7539 29.676V36.9473H39.3357V34.8946C39.3357 34.3279 38.8724 33.8683 38.3006 33.8683H37.2654V6.15782H38.3006C38.8724 6.15782 39.3357 5.69824 39.3357 5.1315V1.02632C39.3357 0.459587 38.8724 0 38.3006 0H1.03516C0.463439 0 0 0.459587 0 1.02632V5.1315C0 5.69824 0.463439 6.15782 1.03516 6.15782H2.0701V33.8683H1.03516C0.463439 33.8683 0 34.3279 0 34.8946V37.9737C0 38.5405 0.463439 39 1.03516 39H15.5271C16.0986 39 16.5623 38.5405 16.5623 37.9737V34.8946C16.5623 34.3279 16.0986 33.8683 15.5271 33.8683H14.492V23.6054C14.492 20.7757 16.8138 18.4736 19.6678 18.4736C22.5217 18.4736 24.8435 20.7757 24.8435 23.6054V33.8683H23.8086C23.2371 33.8683 22.7734 34.3279 22.7734 34.8946V37.9737C22.7734 38.5405 23.2371 39 23.8086 39H38.3006H48.9661C49.5378 39 50.0012 38.5405 50.0012 37.9737C50.0012 37.4068 49.5379 36.9473 48.9661 36.9473ZM42.6484 23.6054C42.6484 21.3417 44.5058 19.5001 46.789 19.5001C49.0721 19.5001 50.9297 21.3417 50.9297 23.6054C50.9297 25.5148 49.608 27.1237 47.8242 27.5806V26.0461L49.2081 24.6738C49.6122 24.273 49.6122 23.6231 49.2079 23.2224C48.8036 22.8215 48.1483 22.8216 47.7441 23.2225L46.789 24.1695L45.8338 23.2225C45.4299 22.8218 44.7742 22.8217 44.37 23.2224C43.9657 23.6231 43.9657 24.2729 44.3698 24.6738L45.7539 26.0462V27.5806C43.9701 27.1237 42.6484 25.5147 42.6484 23.6054ZM2.07031 2.05264H37.2654V4.10518H36.2302H3.10526H2.07031V2.05264ZM14.492 36.9473H2.07031V35.9209H14.492V36.9473ZM4.14042 33.8683V28.7368H8.28104C8.85276 28.7368 9.3162 28.2773 9.3162 27.7105C9.3162 27.1437 8.85276 26.6841 8.28104 26.6841H4.14042V24.6317H12.4217V33.8683H4.14042ZM19.6675 16.4209C16.0237 16.4209 13.0007 19.1021 12.4969 22.5791H4.14042V6.15782H35.1951V22.5791H26.8387C26.3348 19.1021 23.3116 16.4209 19.6675 16.4209ZM26.9138 24.6317H35.1951V26.6841H31.0545C30.4828 26.6841 30.0193 27.1437 30.0193 27.7105C30.0193 28.2773 30.4828 28.7368 31.0545 28.7368H35.1951V33.8683H26.9138V24.6317ZM24.8437 35.9209H37.2654V36.9473H24.8437V35.9209Z" fill="#000001"/>
<path d="M32.0654 10.2629H32.0899C32.6615 10.2629 33.125 9.80342 33.125 9.23659C33.125 8.66985 32.6615 8.21027 32.0899 8.21027H32.0654C31.4937 8.21027 31.0303 8.66985 31.0303 9.23659C31.0303 9.80332 31.4936 10.2629 32.0654 10.2629Z" fill="#000001"/>
<path d="M20.9101 10.2632L29.0913 10.2628C29.6628 10.2628 30.1262 9.80333 30.1262 9.2365C30.1262 8.66966 29.6628 8.21017 29.0911 8.21017L20.9099 8.21059H10.2444C9.67267 8.21059 9.20923 8.67017 9.20923 9.23691C9.20923 9.80374 9.67267 10.2632 10.2444 10.2632H20.9101Z" fill="#000001"/>
<path d="M7.27032 8.21057H7.24609C6.67438 8.21057 6.21094 8.67016 6.21094 9.23689C6.21094 9.80373 6.67438 10.2632 7.24609 10.2632H7.27032C7.84203 10.2632 8.30547 9.80373 8.30547 9.23689C8.30547 8.67016 7.84214 8.21057 7.27032 8.21057Z" fill="#000001"/>
<path d="M26.9138 13.3422C26.9138 12.7753 26.4503 12.3159 25.8787 12.3159H13.4568C12.8853 12.3159 12.4216 12.7753 12.4216 13.3422C12.4216 13.9089 12.8853 14.3685 13.4568 14.3685H25.8787C26.4503 14.3685 26.9138 13.9089 26.9138 13.3422Z" fill="#000001"/>
</svg>
