<svg width="51" height="25" viewBox="0 0 51 25" fill="none" xmlns="http://www.w3.org/2000/svg">
<path d="M29.5859 7.54585C29.9749 7.68912 30.4059 7.66498 30.7765 7.47918L39.1703 3.27088L39.1708 3.27062C40.419 2.64422 41.8089 2.31625 43.2135 2.31625H47.8641C49.0441 2.31625 49.7733 3.45032 49.3967 4.4312L49.3961 4.43271C48.0505 7.94867 45.4004 10.844 41.9679 12.5327L19.8586 23.3829L19.8584 23.383C19.7024 23.4597 19.531 23.5 19.3609 23.5H8.20429C7.88121 23.5 7.57259 23.359 7.36472 23.1217C7.36459 23.1215 7.36446 23.1214 7.36433 23.1212L1.64854 16.5725L3.98786 15.424L3.98786 15.424L3.9941 15.4209C4.27996 15.279 4.63234 15.2697 4.93441 15.4027L4.9381 15.4043L9.65353 17.4647C10.0618 17.6431 10.5282 17.6308 10.9264 17.4311L18.907 13.4296C19.3906 13.1871 19.7062 12.703 19.7329 12.1626C19.7595 11.6223 19.4931 11.1094 19.0357 10.8205L7.48515 3.52485L10.833 1.88487L10.833 1.88488L10.8375 1.88266C11.75 1.43183 12.8219 1.3766 13.7974 1.73153C13.7981 1.73179 13.7988 1.73205 13.7996 1.73231L29.5859 7.54585Z" stroke="white" stroke-width="3" stroke-linejoin="round"/>
</svg>
