<svg width="24" height="26" viewBox="0 0 24 26" fill="none" xmlns="http://www.w3.org/2000/svg">
<path d="M1 14.8835V19.6193" stroke="#454545" stroke-width="2" stroke-linecap="round" stroke-linejoin="round"/>
<path d="M5.14506 21.6268L1 19.6193" stroke="#454545" stroke-width="2" stroke-linecap="round" stroke-linejoin="round"/>
<path d="M5.07362 17.6149L1 19.6193" stroke="#454545" stroke-width="2" stroke-linecap="round" stroke-linejoin="round"/>
<path d="M7.61523 22.8044L11.6539 25" stroke="#454545" stroke-width="2" stroke-linecap="round" stroke-linejoin="round"/>
<path d="M15.6943 22.8044L11.6541 25" stroke="#454545" stroke-width="2" stroke-linecap="round" stroke-linejoin="round"/>
<path d="M11.6541 20.1346V25" stroke="#454545" stroke-width="2" stroke-linecap="round" stroke-linejoin="round"/>
<path d="M7.50574 9.58331L11.6444 11.722" stroke="#454545" stroke-width="2" stroke-linecap="round" stroke-linejoin="round"/>
<path d="M15.7149 9.58331L11.6444 11.722" stroke="#454545" stroke-width="2" stroke-linecap="round" stroke-linejoin="round"/>
<path d="M11.6444 11.722L11.6698 15.726" stroke="#454545" stroke-width="2" stroke-linecap="round" stroke-linejoin="round"/>
<path d="M15.6943 3.19562L11.6541 1" stroke="#454545" stroke-width="2" stroke-linecap="round" stroke-linejoin="round"/>
<path d="M7.61523 3.19562L11.6539 1" stroke="#454545" stroke-width="2" stroke-linecap="round" stroke-linejoin="round"/>
<path d="M11.6541 5.86545V1" stroke="#454545" stroke-width="2" stroke-linecap="round" stroke-linejoin="round"/>
<path d="M22.3523 11.0723V6.33652" stroke="#454545" stroke-width="2" stroke-linecap="round" stroke-linejoin="round"/>
<path d="M18.2057 4.32742L22.3523 6.33651" stroke="#454545" stroke-width="2" stroke-linecap="round" stroke-linejoin="round"/>
<path d="M18.2771 8.33929L22.3523 6.33652" stroke="#454545" stroke-width="2" stroke-linecap="round" stroke-linejoin="round"/>
<path d="M22.3523 14.8835V19.6193" stroke="#454545" stroke-width="2" stroke-linecap="round" stroke-linejoin="round"/>
<path d="M18.2057 21.6268L22.3523 19.6193" stroke="#454545" stroke-width="2" stroke-linecap="round" stroke-linejoin="round"/>
<path d="M18.2771 17.6149L22.3523 19.6193" stroke="#454545" stroke-width="2" stroke-linecap="round" stroke-linejoin="round"/>
<path d="M1 11.0723V6.33652" stroke="#454545" stroke-width="2" stroke-linecap="round" stroke-linejoin="round"/>
<path d="M5.14506 4.32742L1 6.33651" stroke="#454545" stroke-width="2" stroke-linecap="round" stroke-linejoin="round"/>
<path d="M5.07362 8.33929L1 6.33652" stroke="#454545" stroke-width="2" stroke-linecap="round" stroke-linejoin="round"/>
</svg>
