<svg xmlns="http://www.w3.org/2000/svg" width="22" height="17" viewBox="0 0 22 17"><path d="M11,13.281a4.864,4.864,0,0,1-4.912-4.42L2.482,6.17A11.042,11.042,0,0,0,1.22,8.015a1.041,1.041,0,0,0,0,.969,10.964,10.964,0,0,0,12.458,5.543l-1.784-1.333a5.124,5.124,0,0,1-.894.087ZM21.788,15.21l-3.8-2.837A11.072,11.072,0,0,0,20.78,8.984a1.041,1.041,0,0,0,0-.969A11.068,11.068,0,0,0,11,2.125,10.889,10.889,0,0,0,5.936,3.377L1.563.112A.563.563,0,0,0,.791.205l-.675.839a.519.519,0,0,0,.1.745l20.225,15.1a.563.563,0,0,0,.772-.093l.675-.839a.519.519,0,0,0-.1-.745ZM15.472,10.5,14.121,9.487A3.05,3.05,0,0,0,14.3,8.5a3.109,3.109,0,0,0-1.286-2.546,3.35,3.35,0,0,0-2.884-.515,1.547,1.547,0,0,1,.32.937,1.5,1.5,0,0,1-.053.332L7.867,4.818a5.049,5.049,0,0,1,6.634.3A4.7,4.7,0,0,1,15.95,8.5a4.537,4.537,0,0,1-.478,2Z" transform="translate(0 0)" fill="#171D51"/></svg>