<svg xmlns="http://www.w3.org/2000/svg" width="19.953" height="13" viewBox="0 0 19.953 13"><path d="M19.832,10.506a11.09,11.09,0,0,0-19.712,0,1.073,1.073,0,0,0,0,.988,11.09,11.09,0,0,0,19.712,0A1.073,1.073,0,0,0,19.832,10.506ZM9.977,15.875A4.933,4.933,0,0,1,4.988,11,4.933,4.933,0,0,1,9.977,6.125,4.933,4.933,0,0,1,14.965,11,4.93,4.93,0,0,1,9.977,15.875Zm0-8.125a3.373,3.373,0,0,0-.877.128,1.593,1.593,0,0,1-.163,2.106,1.686,1.686,0,0,1-2.154.159,3.207,3.207,0,0,0,1.354,3.542A3.38,3.38,0,0,0,12,13.566a3.2,3.2,0,0,0,1.122-3.619,3.313,3.313,0,0,0-3.149-2.2Z" transform="translate(0 -4.5)" fill="#171D51"/></svg>