<svg width="27" height="28" viewBox="0 0 27 28" fill="none" xmlns="http://www.w3.org/2000/svg">
<path d="M25.4562 9.60309L15.5858 1.72343C14.3766 0.758858 12.6221 0.758858 11.4129 1.72343L1.54385 9.60181C1.19741 9.87795 1 10.2864 1 10.7231V25.5487C1 26.345 1.6602 27 2.47074 27H9.08843C9.89897 27 10.5592 26.345 10.5592 25.5487V16.165H16.4408V25.5487C16.4408 26.345 17.101 27 17.9116 27H24.5293C25.3398 27 26 26.345 26 25.5487V10.7231C25.9987 10.2864 25.8013 9.87795 25.4562 9.60309ZM24.528 25.5564H17.9103V16.1586C17.9103 15.3622 17.2501 14.7213 16.4395 14.7213H10.5579C9.74732 14.7213 9.08712 15.3622 9.08712 16.1586V25.5564H2.47074V10.7231L12.3411 2.84469C13.0117 2.30782 13.9883 2.3091 14.6589 2.84469L24.5293 10.7231L24.528 25.5564Z" fill="#454545" stroke="#454545"/>
</svg>
