<svg width="38" height="21" viewBox="0 0 38 21" fill="none" xmlns="http://www.w3.org/2000/svg">
<path d="M1 16.3145V15.3722C1 13.5767 2.49009 12.1187 4.33129 12.1187H9.4623" stroke="black" stroke-width="2" stroke-miterlimit="10" stroke-linecap="round"/>
<path d="M37 16.3145V15.3722C37 13.5767 35.5099 12.1187 33.6687 12.1187H28.5377" stroke="black" stroke-width="2" stroke-miterlimit="10" stroke-linecap="round"/>
<path d="M18.9999 9.28094C21.2566 9.28094 23.086 7.49428 23.086 5.29032C23.086 3.08636 21.2566 1.2997 18.9999 1.2997C16.7433 1.2997 14.9139 3.08636 14.9139 5.29032C14.9139 7.49428 16.7433 9.28094 18.9999 9.28094Z" stroke="black" stroke-width="2" stroke-miterlimit="10" stroke-linecap="round"/>
<path d="M6.48214 6.82123C8.12805 6.82123 9.46233 5.5181 9.46233 3.91062C9.46233 2.30313 8.12805 1 6.48214 1C4.83623 1 3.50195 2.30313 3.50195 3.91062C3.50195 5.5181 4.83623 6.82123 6.48214 6.82123Z" stroke="black" stroke-width="2" stroke-miterlimit="10" stroke-linecap="round"/>
<path d="M31.4488 6.82123C33.0947 6.82123 34.429 5.5181 34.429 3.91062C34.429 2.30313 33.0947 1 31.4488 1C29.8029 1 28.4686 2.30313 28.4686 3.91062C28.4686 5.5181 29.8029 6.82123 31.4488 6.82123Z" stroke="black" stroke-width="2" stroke-miterlimit="10" stroke-linecap="round"/>
<path d="M10.8916 20H27.4485C27.3932 18.2126 26.8127 16.7438 25.4221 15.7691C24.5098 15.1292 23.3929 14.8295 22.2677 14.8295H15.8512C13.5649 14.8295 11.5413 16.355 11.0519 18.5366C10.9497 18.9929 10.8971 19.4816 10.8916 20Z" stroke="black" stroke-width="2" stroke-linecap="round" stroke-linejoin="round"/>
</svg>
