<svg width="11" height="14" viewBox="0 0 11 14" fill="none" xmlns="http://www.w3.org/2000/svg">
<path d="M6.17891 13.6854C7.64844 11.9254 11 7.65967 11 5.26362C11 2.35766 8.53646 0 5.5 0C2.46354 0 0 2.35766 0 5.26362C0 7.65967 3.35156 11.9254 4.82109 13.6854C5.17344 14.1049 5.82656 14.1049 6.17891 13.6854ZM5.5 3.50908C5.98623 3.50908 6.45255 3.69393 6.79636 4.02297C7.14018 4.35201 7.33333 4.79829 7.33333 5.26362C7.33333 5.72895 7.14018 6.17523 6.79636 6.50427C6.45255 6.83331 5.98623 7.01816 5.5 7.01816C5.01377 7.01816 4.54745 6.83331 4.20364 6.50427C3.85982 6.17523 3.66667 5.72895 3.66667 5.26362C3.66667 4.79829 3.85982 4.35201 4.20364 4.02297C4.54745 3.69393 5.01377 3.50908 5.5 3.50908Z" fill="#424446"/>
</svg>
