<svg width="13" height="12" viewBox="0 0 13 12" fill="none" xmlns="http://www.w3.org/2000/svg">
<path d="M7.20725 0.421828C7.07677 0.164044 6.80104 0 6.49823 0C6.19542 0 5.92216 0.164044 5.78922 0.421828L4.20624 3.52226L0.671015 4.01908C0.375592 4.06126 0.129406 4.25812 0.0383175 4.52762C-0.0527713 4.79712 0.0210844 5.09474 0.232804 5.29394L2.79806 7.71007L2.19244 11.1245C2.14321 11.4058 2.2663 11.6917 2.51002 11.858C2.75375 12.0244 3.07625 12.0455 3.34213 11.9119L6.50069 10.3067L9.65926 11.9119C9.92514 12.0455 10.2476 12.0268 10.4914 11.858C10.7351 11.6893 10.8582 11.4058 10.8089 11.1245L10.2009 7.71007L12.7661 5.29394C12.9778 5.09474 13.0542 4.79712 12.9606 4.52762C12.8671 4.25812 12.6233 4.06126 12.3279 4.01908L8.79022 3.52226L7.20725 0.421828Z" fill="#FFC839"/>
</svg>
