<svg width="26" height="26" viewBox="0 0 26 26" fill="none" xmlns="http://www.w3.org/2000/svg">
<path d="M22.4545 4.72727H18.9091V3.54545C18.9091 2.60514 18.5356 1.70334 17.8707 1.03844C17.2058 0.373538 16.304 0 15.3636 0H10.6364C9.69605 0 8.79425 0.373538 8.12935 1.03844C7.46445 1.70334 7.09091 2.60514 7.09091 3.54545V4.72727H3.54545C2.60514 4.72727 1.70334 5.10081 1.03844 5.76571C0.373538 6.43061 0 7.33241 0 8.27273V22.4545C0 23.3949 0.373538 24.2967 1.03844 24.9616C1.70334 25.6265 2.60514 26 3.54545 26H22.4545C23.3949 26 24.2967 25.6265 24.9616 24.9616C25.6265 24.2967 26 23.3949 26 22.4545V8.27273C26 7.33241 25.6265 6.43061 24.9616 5.76571C24.2967 5.10081 23.3949 4.72727 22.4545 4.72727ZM9.45455 3.54545C9.45455 3.23202 9.57906 2.93142 9.80069 2.70978C10.0223 2.48815 10.3229 2.36364 10.6364 2.36364H15.3636C15.6771 2.36364 15.9777 2.48815 16.1993 2.70978C16.4209 2.93142 16.5455 3.23202 16.5455 3.54545V4.72727H9.45455V3.54545ZM2.36364 8.27273C2.36364 7.95929 2.48815 7.65869 2.70978 7.43706C2.93142 7.21542 3.23202 7.09091 3.54545 7.09091H22.4545C22.768 7.09091 23.0686 7.21542 23.2902 7.43706C23.5119 7.65869 23.6364 7.95929 23.6364 8.27273V10.6364C23.6364 11.5767 23.2628 12.4785 22.5979 13.1434C21.933 13.8083 21.0312 14.1818 20.0909 14.1818H5.90909C4.96878 14.1818 4.06698 13.8083 3.40208 13.1434C2.73717 12.4785 2.36364 11.5767 2.36364 10.6364V8.27273ZM22.4545 23.6364H3.54545C3.23202 23.6364 2.93142 23.5119 2.70978 23.2902C2.48815 23.0686 2.36364 22.768 2.36364 22.4545V15.3636C3.38321 16.137 4.62942 16.5524 5.90909 16.5455C21.2727 16.5455 21.5209 16.9355 23.6364 15.3636V22.4545C23.6364 22.768 23.5119 23.0686 23.2902 23.2902C23.0686 23.5119 22.768 23.6364 22.4545 23.6364Z" fill="#454545"/>
</svg>
